<?xml version="1.0" encoding="iso-8859-1"?>
<!-- Generator: Adobe Illustrator 19.0.0, SVG Export Plug-In . SVG Version: 6.00 Build 0)  -->
<svg xmlns="http://www.w3.org/2000/svg" xmlns:xlink="http://www.w3.org/1999/xlink" version="1.1" id="Capa_1" x="0px" y="0px" viewBox="0 0 512 512" style="enable-background:new 0 0 512 512;" xml:space="preserve" width="512px" height="512px">
<g>
	<g>
		<path d="M256,0C114.615,0,0,114.615,0,256s114.615,256,256,256s256-114.615,256-256C511.835,114.683,397.317,0.165,256,0z     M256,490.667C126.397,490.667,21.333,385.603,21.333,256S126.397,21.333,256,21.333S490.667,126.397,490.667,256    C490.52,385.542,385.542,490.52,256,490.667z" fill="#d80228"/>
	</g>
</g>
<g>
	<g>
		<polygon points="391.765,135.328 376.683,120.235 256,240.917 135.317,120.235 120.235,135.328 240.917,256 120.235,376.672     135.317,391.765 256,271.083 376.683,391.765 391.765,376.672 271.083,256   " fill="#d80228"/>
	</g>
</g>
<g>
</g>
<g>
</g>
<g>
</g>
<g>
</g>
<g>
</g>
<g>
</g>
<g>
</g>
<g>
</g>
<g>
</g>
<g>
</g>
<g>
</g>
<g>
</g>
<g>
</g>
<g>
</g>
<g>
</g>
</svg>
