<?xml version="1.0" encoding="utf-8"?>
<!-- Generator: Adobe Illustrator 23.0.2, SVG Export Plug-In . SVG Version: 6.00 Build 0)  -->
<svg version="1.1" id="Capa_1" xmlns="http://www.w3.org/2000/svg" xmlns:xlink="http://www.w3.org/1999/xlink" x="0px" y="0px"
	 width="58px" height="58px" viewBox="0 0 58 58" style="enable-background:new 0 0 58 58;" xml:space="preserve">
<style type="text/css">
	.st0{fill:#D1D4D2;}
	.st1{fill:#939393;}
	.st2{fill:#A5A5A4;}
	.st3{fill:#FFFFFF;}
	.st4{fill:#FF0000;}
	.st5{fill:#3A3A3A;}
</style>
<g id="XMLID_10_">
	<g id="XMLID_121_">
		<path class="st0" d="M54.6,49.8H3.4c-1.8,0-3.2-1.4-3.2-3.2V11.4c0-1.8,1.4-3.2,3.2-3.2h51.2c1.8,0,3.2,1.4,3.2,3.2v35.3
			C57.7,48.4,56.4,49.8,54.6,49.8"/>
		<path class="st1" d="M54.6,50.1H3.4c-1.9,0-3.4-1.5-3.4-3.4V11.4c0-1.9,1.5-3.4,3.4-3.4h51.2c1.9,0,3.4,1.5,3.4,3.4v35.3
			C58,48.6,56.5,50.1,54.6,50.1z M3.4,8.4c-1.6,0-2.9,1.3-2.9,2.9v35.3c0,1.6,1.3,2.9,2.9,2.9h51.2c1.6,0,2.9-1.3,2.9-2.9V11.4
			c0-1.6-1.3-2.9-2.9-2.9H3.4z"/>
	</g>
	<rect id="XMLID_120_" x="0.3" y="13.1" class="st2" width="57.5" height="7.9"/>
	<path id="XMLID_119_" class="st3" d="M15.1,28H7.2c-0.6,0-1-0.4-1-1s0.4-1,1-1h7.9c0.6,0,1,0.4,1,1S15.7,28,15.1,28"/>
	<path id="XMLID_118_" class="st3" d="M27,28h-7.9c-0.6,0-1-0.4-1-1s0.4-1,1-1H27c0.6,0,1,0.4,1,1S27.6,28,27,28"/>
	<path id="XMLID_117_" class="st3" d="M8.2,33h-1c-0.6,0-1-0.4-1-1s0.4-1,1-1h1c0.6,0,1,0.4,1,1C9.2,32.6,8.8,33,8.2,33"/>
	<path id="XMLID_116_" class="st3" d="M14.1,33h-2c-0.6,0-1-0.4-1-1s0.4-1,1-1h2c0.6,0,1,0.4,1,1C15.1,32.6,14.7,33,14.1,33"/>
	<path id="XMLID_115_" class="st3" d="M19.1,33h-1c-0.6,0-1-0.4-1-1s0.4-1,1-1h1c0.6,0,1,0.4,1,1C20.1,32.6,19.7,33,19.1,33"/>
	<path id="XMLID_114_" class="st3" d="M25,33h-2c-0.6,0-1-0.4-1-1s0.4-1,1-1h2c0.6,0,1,0.4,1,1C26,32.6,25.6,33,25,33"/>
	<path id="XMLID_113_" class="st3" d="M29,33c-0.3,0-0.5-0.1-0.7-0.3C28.1,32.5,28,32.3,28,32c0-0.3,0.1-0.5,0.3-0.7
		c0.4-0.4,1-0.4,1.4,0c0.2,0.2,0.3,0.4,0.3,0.7s-0.1,0.5-0.3,0.7C29.5,32.9,29.3,33,29,33"/>
	<path id="XMLID_112_" class="st3" d="M46.8,33h-1c-0.6,0-1-0.4-1-1s0.4-1,1-1h1c0.6,0,1,0.4,1,1C47.8,32.6,47.4,33,46.8,33"/>
	<path id="XMLID_111_" class="st3" d="M50.8,33c-0.3,0-0.5-0.1-0.7-0.3s-0.3-0.4-0.3-0.7c0-0.3,0.1-0.5,0.3-0.7c0.4-0.4,1-0.4,1.4,0
		c0.2,0.2,0.3,0.4,0.3,0.7s-0.1,0.5-0.3,0.7S51.1,33,50.8,33"/>
	<path id="XMLID_110_" class="st3" d="M38.9,28H31c-0.6,0-1-0.4-1-1s0.4-1,1-1h7.9c0.6,0,1,0.4,1,1S39.5,28,38.9,28"/>
	<path id="XMLID_109_" class="st3" d="M50.8,28h-7.9c-0.6,0-1-0.4-1-1s0.4-1,1-1h7.9c0.6,0,1,0.4,1,1S51.4,28,50.8,28"/>
	<path id="XMLID_108_" class="st3" d="M37.9,33h-5c-0.6,0-1-0.4-1-1s0.4-1,1-1h5c0.6,0,1,0.4,1,1C38.9,32.6,38.5,33,37.9,33"/>
	<path id="XMLID_107_" class="st3" d="M41.9,33c-0.3,0-0.5-0.1-0.7-0.3s-0.3-0.4-0.3-0.7c0-0.3,0.1-0.5,0.3-0.7c0.4-0.4,1-0.4,1.4,0
		c0.2,0.2,0.3,0.4,0.3,0.7s-0.1,0.5-0.3,0.7S42.2,33,41.9,33"/>
</g>
<g>
	<path class="st4" d="M52.6,46.4H39.8c-1.2,0-2.2-1-2.2-2.2v-5.4c0-1.2,1-2.2,2.2-2.2h12.8c1.2,0,2.2,1,2.2,2.2v5.4
		C54.8,45.5,53.8,46.4,52.6,46.4z M39.8,37.1c-0.9,0-1.7,0.8-1.7,1.7v5.4c0,0.9,0.8,1.7,1.7,1.7h12.8c0.9,0,1.7-0.8,1.7-1.7v-5.4
		c0-0.9-0.8-1.7-1.7-1.7H39.8z"/>
</g>
<g>
	<path class="st5" d="M42.2,40.3v3.4h-0.7v-2.9h-0.7v-0.5H42.2z"/>
	<path class="st5" d="M45.4,43.2v0.6h-2.6v-0.4l1.4-1.3c0.3-0.3,0.4-0.5,0.4-0.7c0-0.3-0.2-0.5-0.7-0.5c-0.3,0-0.6,0.1-0.8,0.4
		l-0.5-0.5c0.3-0.4,0.8-0.6,1.3-0.6c0.8,0,1.3,0.4,1.3,1c0,0.3-0.1,0.7-0.6,1.1l-0.9,0.9H45.4z"/>
	<path class="st5" d="M48.2,42.7c0,0.6-0.4,1.1-1.4,1.1c-0.5,0-1-0.1-1.3-0.4l0.3-0.5c0.3,0.2,0.6,0.3,1,0.3c0.5,0,0.7-0.2,0.7-0.5
		s-0.2-0.5-0.8-0.5h-0.3v-0.4l0.8-0.9h-1.5v-0.5h2.4v0.4l-0.9,1C47.9,41.8,48.2,42.2,48.2,42.7z"/>
	<path class="st5" d="M51.7,43h-0.6v0.8h-0.6V43h-1.9v-0.5l1.7-2.3H51l-1.6,2.2h1.1v-0.7h0.6v0.7h0.6V43z"/>
</g>
</svg>
