<?xml version="1.0" encoding="iso-8859-1"?>
<!-- Generator: Adobe Illustrator 18.0.0, SVG Export Plug-In . SVG Version: 6.00 Build 0)  -->
<!DOCTYPE svg PUBLIC "-//W3C//DTD SVG 1.1//EN" "http://www.w3.org/Graphics/SVG/1.1/DTD/svg11.dtd">
<svg version="1.1" id="Capa_1" xmlns="http://www.w3.org/2000/svg" xmlns:xlink="http://www.w3.org/1999/xlink" x="0px" y="0px"
	 viewBox="0 0 68.123 68.123" style="enable-background:new 0 0 68.123 68.123;" xml:space="preserve">
<path d="M61.435,12.448H6.688C3,12.448,0,15.448,0,19.136v9.048v9.447v11.355c0,3.688,3,6.688,6.688,6.688h54.746
	c3.688,0,6.688-3,6.688-6.688V37.632v-9.447v-9.048C68.123,15.448,65.123,12.448,61.435,12.448z M6.688,14.448h54.746
	c2.585,0,4.688,2.103,4.688,4.688v8.048H2v-8.048C2,16.551,4.103,14.448,6.688,14.448z M66.123,36.632H2v-7.447h64.123V36.632z
	 M61.435,53.675H6.688C4.103,53.675,2,51.572,2,48.987V38.632h64.123v10.355C66.123,51.572,64.02,53.675,61.435,53.675z
	 M14.395,44.458c0,0.552-0.448,1-1,1H7.706c-0.552,0-1-0.448-1-1s0.448-1,1-1h5.688C13.947,43.458,14.395,43.906,14.395,44.458z
	 M27.288,44.458c0,0.552-0.448,1-1,1H20.6c-0.552,0-1-0.448-1-1s0.448-1,1-1h5.688C26.84,43.458,27.288,43.906,27.288,44.458z
	 M53.247,24.609c0.844,0,1.647-0.276,2.307-0.785c0.659,0.509,1.462,0.785,2.306,0.785c2.087,0,3.785-1.698,3.785-3.785
	s-1.698-3.785-3.785-3.785c-0.844,0-1.647,0.276-2.306,0.785c-0.659-0.509-1.463-0.785-2.307-0.785
	c-2.087,0-3.785,1.698-3.785,3.785S51.16,24.609,53.247,24.609z M53.247,18.038c0.735,0,1.43,0.286,1.956,0.804
	c0.194,0.192,0.507,0.192,0.703,0c0.525-0.519,1.219-0.804,1.955-0.804c1.536,0,2.785,1.25,2.785,2.785s-1.25,2.785-2.785,2.785
	c-0.736,0-1.43-0.286-1.955-0.804c-0.098-0.096-0.225-0.144-0.352-0.144s-0.254,0.048-0.351,0.144
	c-0.525,0.519-1.22,0.804-1.956,0.804c-1.536,0-2.785-1.25-2.785-2.785S51.711,18.038,53.247,18.038z"/>
<g>
</g>
<g>
</g>
<g>
</g>
<g>
</g>
<g>
</g>
<g>
</g>
<g>
</g>
<g>
</g>
<g>
</g>
<g>
</g>
<g>
</g>
<g>
</g>
<g>
</g>
<g>
</g>
<g>
</g>
</svg>
