<svg enable-background="new 0 0 134.7 40" height="40" viewBox="0 0 134.7 40" width="134.7" xmlns="http://www.w3.org/2000/svg" xmlns:xlink="http://www.w3.org/1999/xlink"><linearGradient id="a" gradientTransform="matrix(18.5185 0 0 -18.5185 28251.0137 6901.2656)" gradientUnits="userSpaceOnUse" x1="-1524.3854" x2="-1525.2905" y1="372.2009" y2="371.2958"><stop offset="0" stop-color="#00a0ff"/><stop offset=".007000001" stop-color="#00a1ff"/><stop offset=".26" stop-color="#00beff"/><stop offset=".512" stop-color="#00d2ff"/><stop offset=".76" stop-color="#00dfff"/><stop offset="1" stop-color="#00e3ff"/></linearGradient><linearGradient id="b" gradientTransform="matrix(18.5185 0 0 -18.5185 28251.0137 6901.2656)" gradientUnits="userSpaceOnUse" x1="-1523.7338" x2="-1525.0387" y1="371.5857" y2="371.5857"><stop offset="0" stop-color="#ffe000"/><stop offset=".409" stop-color="#ffbd00"/><stop offset=".775" stop-color="#ffa500"/><stop offset="1" stop-color="#ff9c00"/></linearGradient><linearGradient id="c" gradientTransform="matrix(18.5185 0 0 -18.5185 28251.0137 6901.2656)" gradientUnits="userSpaceOnUse" x1="-1524.2212" x2="-1525.4485" y1="371.4672" y2="370.2398"><stop offset="0" stop-color="#ff3a44"/><stop offset="1" stop-color="#c31162"/></linearGradient><linearGradient id="d" gradientTransform="matrix(18.5185 0 0 -18.5185 28251.0137 6901.2656)" gradientUnits="userSpaceOnUse" x1="-1525.1687" x2="-1524.6206" y1="372.6547" y2="372.1066"><stop offset="0" stop-color="#32a071"/><stop offset=".069" stop-color="#2da771"/><stop offset=".476" stop-color="#15cf74"/><stop offset=".801" stop-color="#06e775"/><stop offset="1" stop-color="#00f076"/></linearGradient><path d="m129.8 40h-124.9c-2.8 0-4.9-2.2-4.9-4.9v-30c0-2.8 2.2-4.9 4.9-4.9h124.8c2.8 0 4.9 2.2 4.9 4.9v30c.2 2.7-2.1 4.9-4.8 4.9z"/><path d="m129.8.8c2.2 0 4.2 1.9 4.2 4.2v30c0 2.2-1.9 4.2-4.2 4.2h-124.9c-2.2 0-4.2-1.9-4.2-4.2v-29.9c0-2.2 1.9-4.2 4.2-4.2h124.9m0-.9h-124.9c-2.7 0-4.9 2.4-4.9 5.1v30c0 2.8 2.2 4.9 4.9 4.9h124.8c2.8 0 4.9-2.2 4.9-4.9v-30c.2-2.7-2.1-5.1-4.8-5.1z" fill="#a6a6a6"/><path d="m47.3 10.2c0 .8-.2 1.5-.7 2-.6.6-1.3.9-2.2.9s-1.6-.3-2.2-.9-.9-1.3-.9-2.2.3-1.6.9-2.2 1.3-.9 2.2-.9c.4 0 .8.1 1.2.3s.7.4.9.7l-.5.5c-.4-.4-.9-.7-1.6-.7-.6 0-1.2.2-1.6.7-.4.4-.7 1-.7 1.7s.2 1.3.7 1.7c.4.4 1 .7 1.6.7.7 0 1.2-.2 1.7-.7.3-.3.4-.7.4-1.2h-2.2v-.8h2.9v.4zm4.6-2.4h-2.7v1.9h2.5v.7h-2.5v1.9h2.7v.7h-3.5v-6h3.5zm3.3 5.2h-.8v-5.2h-1.7v-.8h4.2v.7h-1.7zm4.5 0v-6h.9v6zm4.3 0h-.8v-5.2h-1.7v-.8h4v.7h-1.7zm9.4-.8c-.6.6-1.3.9-2.2.9s-1.6-.3-2.2-.9c-.6-.5-1-1.3-1-2.2s.3-1.6.9-2.2 1.3-.9 2.2-.9 1.6.3 2.2.9.9 1.3.9 2.2c.1.9-.1 1.6-.8 2.2zm-3.8-.5c.4.4 1 .7 1.6.7s1.2-.2 1.6-.7c.4-.4.7-1 .7-1.7s-.2-1.3-.7-1.7c-.3-.4-.9-.7-1.5-.7s-1.2.2-1.7.7c-.4.4-.7 1-.7 1.7s.3 1.3.7 1.7zm5.9 1.3v-6h.9l2.9 4.7v-4.7h.8v6h-.8l-3.2-5v4.9h-.7v.1z" fill="#fff" stroke="#fff" stroke-miterlimit="10" stroke-width=".010787"/><path d="m67.9 21.8c-2.4 0-4.3 1.8-4.3 4.3 0 2.4 1.9 4.3 4.3 4.3s4.3-1.8 4.3-4.3c.1-2.6-1.8-4.3-4.3-4.3zm0 6.7c-1.3 0-2.4-1.1-2.4-2.6s1.1-2.6 2.4-2.6 2.4 1 2.4 2.6c.1 1.6-1 2.6-2.4 2.6zm-9.2-6.7c-2.4 0-4.3 1.8-4.3 4.3 0 2.4 1.9 4.3 4.3 4.3s4.3-1.8 4.3-4.3c0-2.6-1.9-4.3-4.3-4.3zm0 6.7c-1.3 0-2.4-1.1-2.4-2.6s1.1-2.6 2.4-2.6 2.4 1 2.4 2.6-1.1 2.6-2.4 2.6zm-11.1-5.4v1.8h4.3c-.1 1-.4 1.8-1 2.2-.6.6-1.6 1.3-3.3 1.3-2.7 0-4.7-2.1-4.7-4.8s2.1-4.8 4.7-4.8c1.3 0 2.5.6 3.3 1.3l1.3-1.3c-1.1-1-2.5-1.8-4.5-1.8-3.6 0-6.7 3-6.7 6.6s3.1 6.6 6.7 6.6c2 0 3.4-.6 4.6-1.9 1.2-1.2 1.6-2.9 1.6-4.2 0-.4 0-.8-.1-1.1zm45.4 1.4c-.4-1-1.3-2.7-3.6-2.7-2.2 0-4 1.7-4 4.3 0 2.4 1.8 4.3 4.2 4.3 1.9 0 3.1-1.2 3.5-1.9l-1.3-1c-.4.7-1.1 1.2-2.1 1.2s-1.6-.4-2.1-1.3l5.7-2.4zm-5.9 1.3c0-1.6 1.3-2.5 2.2-2.5.7 0 1.3.4 1.6.9zm-4.7 4.2h1.9v-12.5h-1.9zm-2.9-7.3c-.4-.4-1.3-1-2.2-1-2.1 0-4 1.9-4 4.3s1.9 4.2 4 4.2c1 0 1.8-.4 2.2-1h.1v.6c0 1.6-.9 2.5-2.2 2.5-1.1 0-1.9-.8-2.1-1.5l-1.6.7c.4 1.1 1.7 2.5 3.8 2.5 2.2 0 4-1.3 4-4.4v-7.6h-1.8zm-2.2 5.8c-1.3 0-2.4-1.1-2.4-2.6s1.1-2.6 2.4-2.6c1.2 0 2.2 1.1 2.2 2.6 0 1.6-.9 2.6-2.2 2.6zm24.3-11h-4.5v12.5h1.9v-4.7h2.6c2.1 0 4-1.5 4-3.9s-1.8-3.9-4-3.9zm.1 6h-2.7v-4.3h2.7c1.3 0 2.2 1.2 2.2 2.1-.1 1.1-.9 2.2-2.2 2.2zm11.5-1.8c-1.3 0-2.8.6-3.3 1.9l1.7.7c.4-.7 1-.9 1.7-.9 1 0 1.9.6 2 1.6v.1c-.3-.2-1.1-.4-1.9-.4-1.8 0-3.6 1-3.6 2.8 0 1.7 1.5 2.8 3.1 2.8 1.3 0 1.9-.6 2.4-1.2h.1v1h1.8v-4.8c-.2-2.3-1.9-3.6-4-3.6zm-.2 6.8c-.6 0-1.5-.3-1.5-1.1 0-1 1.1-1.3 2-1.3.8 0 1.2.2 1.7.4-.2 1.3-1.2 2-2.2 2zm10.5-6.5-2.1 5.4h-.1l-2.2-5.4h-2l3.3 7.6-1.9 4.2h1.9l5.1-11.8zm-16.8 8h1.9v-12.5h-1.9z" fill="#fff"/><path d="m10.3 7.5c-.2.4-.3.8-.3 1.4v22c0 .6.2 1.1.4 1.3l.1.1 12.4-12.3v-.2z" fill="url(#a)"/><path d="m26.9 24.3-4-4v-.3l4-4h.1l4.9 2.8c1.3.8 1.3 2.1 0 2.9z" fill="url(#b)"/><path d="m27 24.2-4.1-4.2-12.6 12.5c.4.4 1.2.4 2.1.1z" fill="url(#c)"/><path d="m27 15.8-14.6-8.3c-.9-.6-1.6-.4-2.1.1l12.5 12.4z" fill="url(#d)"/><path d="m26.9 24-14.5 8.2c-.8.4-1.5.4-2 0l-.1.1.1.1c.4.4 1.2.4 2 0z" opacity=".2"/><path d="m10.3 32.2c-.3-.3-.4-.8-.4-1.3v.1c.1.6.3 1.1.4 1.2zm21.6-10.9-5 2.7.1.1 4.9-2.8c.7-.3 1-.8 1-1.3 0 .4-.4.9-1 1.3z" opacity=".12"/><path d="m12.4 7.6 19.4 11.1c.6.4 1 .8 1 1.3 0-.4-.3-1-1-1.3l-19.4-11.1c-1.3-.9-2.4-.3-2.4 1.4v.1c0-1.6 1.1-2.2 2.4-1.5z" fill="#fff" opacity=".25"/></svg>