<svg id="Capa_1" data-name="Capa 1" xmlns="http://www.w3.org/2000/svg" viewBox="0 0 512 405.33"><defs><style>.cls-1{fill:#2196f3;}.cls-2{fill:#fff;}</style></defs><title>right-arrow</title><path class="cls-1" d="M511.19,260a10.67,10.67,0,0,0-2.33-11.63l-192-192a10.67,10.67,0,0,0-15.08,15.08l173.8,173.8H10.67a10.67,10.67,0,0,0,0,21.33H475.58L301.8,440.33a10.67,10.67,0,0,0,14.82,15.35l.26-.26,192-192A10.69,10.69,0,0,0,511.19,260Z" transform="translate(0 -53.33)"/><path class="cls-2" d="M309.33,458.55a10.67,10.67,0,0,1-7.55-18.22L486.25,255.88,301.78,71.43a10.67,10.67,0,0,1,15.08-15.08l192,192a10.67,10.67,0,0,1,0,15.08l-192,192A10.66,10.66,0,0,1,309.33,458.55Z" transform="translate(0 -53.33)"/><path class="cls-2" d="M501.33,266.55H10.67a10.67,10.67,0,1,1,0-21.33H501.33a10.67,10.67,0,1,1,0,21.33Z" transform="translate(0 -53.33)"/></svg>