<?xml version="1.0" encoding="utf-8"?>
<!-- Generator: Adobe Illustrator 21.0.2, SVG Export Plug-In . SVG Version: 6.00 Build 0)  -->
<svg version="1.1" id="Capa_1" xmlns="http://www.w3.org/2000/svg" xmlns:xlink="http://www.w3.org/1999/xlink" x="0px" y="0px"
	 viewBox="0 0 512 512" style="enable-background:new 0 0 512 512;" xml:space="preserve">
<style type="text/css">
	.st0{fill:#C6CAD1;}
</style>
<g>
	<g>
		<path class="st0" d="M256,0C114.6,0,0,114.6,0,256s114.6,256,256,256s256-114.6,256-256C511.8,114.7,397.3,0.2,256,0z M256,490.7
			C126.4,490.7,21.3,385.6,21.3,256S126.4,21.3,256,21.3S490.7,126.4,490.7,256C490.5,385.5,385.5,490.5,256,490.7z"/>
	</g>
</g>
<g>
	<g>
		<polygon class="st0" points="391.8,135.3 376.7,120.2 256,240.9 135.3,120.2 120.2,135.3 240.9,256 120.2,376.7 135.3,391.8 
			256,271.1 376.7,391.8 391.8,376.7 271.1,256 		"/>
	</g>
</g>
</svg>
