<?xml version="1.0" encoding="utf-8"?>
<!-- Generator: Adobe Illustrator 21.0.2, SVG Export Plug-In . SVG Version: 6.00 Build 0)  -->
<svg version="1.1" id="Capa_1" xmlns="http://www.w3.org/2000/svg" xmlns:xlink="http://www.w3.org/1999/xlink" x="0px" y="0px"
	 viewBox="0 0 58 58" style="enable-background:new 0 0 58 58;" xml:space="preserve">
<style type="text/css">
	.st0{fill:#D1D4D2;}
	.st1{fill:#A5A5A4;}
	.st2{fill:#FFFFFF;}
	.st3{fill:none;stroke:#FF0000;stroke-width:0.5;stroke-miterlimit:10;}
	.st4{fill:#3A3A3A;}
</style>
<g id="XMLID_10_">
	<path id="XMLID_121_" class="st0" d="M54.8,50H3.2C1.4,50,0,48.6,0,46.8V11.2C0,9.4,1.4,8,3.2,8h51.6c1.8,0,3.2,1.4,3.2,3.2v35.6
		C58,48.6,56.6,50,54.8,50"/>
	<rect id="XMLID_120_" y="13" class="st1" width="58" height="8"/>
	<path id="XMLID_119_" class="st2" d="M15,28H7c-0.6,0-1-0.4-1-1s0.4-1,1-1h8c0.6,0,1,0.4,1,1S15.6,28,15,28"/>
	<path id="XMLID_118_" class="st2" d="M27,28h-8c-0.6,0-1-0.4-1-1s0.4-1,1-1h8c0.6,0,1,0.4,1,1S27.6,28,27,28"/>
	<path id="XMLID_117_" class="st2" d="M8,33H7c-0.6,0-1-0.4-1-1s0.4-1,1-1h1c0.6,0,1,0.4,1,1C9,32.6,8.6,33,8,33"/>
	<path id="XMLID_116_" class="st2" d="M14,33h-2c-0.6,0-1-0.4-1-1s0.4-1,1-1h2c0.6,0,1,0.4,1,1C15,32.6,14.6,33,14,33"/>
	<path id="XMLID_115_" class="st2" d="M19,33h-1c-0.6,0-1-0.4-1-1s0.4-1,1-1h1c0.6,0,1,0.4,1,1C20,32.6,19.6,33,19,33"/>
	<path id="XMLID_114_" class="st2" d="M25,33h-2c-0.6,0-1-0.4-1-1s0.4-1,1-1h2c0.6,0,1,0.4,1,1C26,32.6,25.6,33,25,33"/>
	<path id="XMLID_113_" class="st2" d="M29,33c-0.3,0-0.5-0.1-0.7-0.3C28.1,32.5,28,32.3,28,32c0-0.3,0.1-0.5,0.3-0.7
		c0.4-0.4,1-0.4,1.4,0c0.2,0.2,0.3,0.4,0.3,0.7c0,0.3-0.1,0.5-0.3,0.7C29.5,32.9,29.3,33,29,33"/>
	<path id="XMLID_112_" class="st2" d="M47,33h-1c-0.6,0-1-0.4-1-1s0.4-1,1-1h1c0.6,0,1,0.4,1,1C48,32.6,47.6,33,47,33"/>
	<path id="XMLID_111_" class="st2" d="M51,33c-0.3,0-0.5-0.1-0.7-0.3C50.1,32.5,50,32.3,50,32s0.1-0.5,0.3-0.7c0.4-0.4,1-0.4,1.4,0
		c0.2,0.2,0.3,0.4,0.3,0.7c0,0.3-0.1,0.5-0.3,0.7C51.5,32.9,51.3,33,51,33"/>
	<path id="XMLID_110_" class="st2" d="M39,28h-8c-0.6,0-1-0.4-1-1s0.4-1,1-1h8c0.6,0,1,0.4,1,1S39.6,28,39,28"/>
	<path id="XMLID_109_" class="st2" d="M51,28h-8c-0.6,0-1-0.4-1-1s0.4-1,1-1h8c0.6,0,1,0.4,1,1S51.6,28,51,28"/>
	<path id="XMLID_108_" class="st2" d="M38,33h-5c-0.6,0-1-0.4-1-1s0.4-1,1-1h5c0.6,0,1,0.4,1,1C39,32.6,38.6,33,38,33"/>
	<path id="XMLID_107_" class="st2" d="M42,33c-0.3,0-0.5-0.1-0.7-0.3C41.1,32.5,41,32.3,41,32s0.1-0.5,0.3-0.7c0.4-0.4,1-0.4,1.4,0
		c0.2,0.2,0.3,0.4,0.3,0.7c0,0.3-0.1,0.5-0.3,0.7C42.5,32.9,42.3,33,42,33"/>
</g>
<path class="st3" d="M53,46.5H40c-1.1,0-2-0.9-2-2V39c0-1.1,0.9-2,2-2h13c1.1,0,2,0.9,2,2v5.5C55,45.6,54.1,46.5,53,46.5z"/>
<g>
	<path class="st4" d="M42.4,40.5V44h-0.7v-3H41v-0.5H42.4z"/>
	<path class="st4" d="M45.7,43.4V44h-2.6v-0.4l1.4-1.3c0.3-0.3,0.4-0.5,0.4-0.7c0-0.3-0.2-0.5-0.7-0.5c-0.3,0-0.6,0.1-0.8,0.4
		L42.9,41c0.3-0.4,0.8-0.6,1.3-0.6c0.8,0,1.3,0.4,1.3,1c0,0.3-0.1,0.7-0.6,1.1L44,43.4H45.7z"/>
	<path class="st4" d="M48.5,42.9c0,0.6-0.4,1.1-1.4,1.1c-0.5,0-1-0.1-1.3-0.4l0.3-0.5c0.3,0.2,0.6,0.3,1,0.3c0.5,0,0.7-0.2,0.7-0.5
		c0-0.3-0.2-0.5-0.8-0.5h-0.3V42l0.8-0.9H46v-0.5h2.4v0.4l-0.9,1C48.2,42,48.5,42.4,48.5,42.9z"/>
	<path class="st4" d="M52.1,43.2h-0.6V44h-0.6v-0.8h-1.9v-0.5l1.7-2.3h0.7l-1.6,2.2h1.1v-0.7h0.6v0.7h0.6V43.2z"/>
</g>
</svg>
