<?xml version="1.0" encoding="utf-8"?>
<!-- Generator: Adobe Illustrator 23.0.2, SVG Export Plug-In . SVG Version: 6.00 Build 0)  -->
<svg version="1.1" id="Capa_1" xmlns="http://www.w3.org/2000/svg" xmlns:xlink="http://www.w3.org/1999/xlink" x="0px" y="0px"
	 viewBox="0 0 612 612" style="enable-background:new 0 0 612 612;" xml:space="preserve">
<style type="text/css">
	.st0{fill:#CCCCCC;}
</style>
<g>
	<g>
		<path class="st0" d="M423.9,91.1c-28.6-27.2-66.7-40.9-113.3-40.9c-50.4,0-90.9,16.1-120.3,47.8c-29.1,31.3-43.9,72.8-43.9,123.4
			v12.7c0,2.9,2.3,5.2,5.2,5.2h81.9c2.8,0,5.1-2.2,5.2-5l0.5-12.2c0.9-24.8,4.7-43.7,11.1-56.1c10.6-20.5,29.1-30,58.1-30
			c23,0,39.2,5.5,48.1,16.5c9.9,12.2,14.7,26.3,14.7,43.2c0,11.7-3.3,22.7-10.3,34.1c-3.9,6.6-9.1,12.9-15.8,19.2l-25.5,25.3
			c-26.6,26.1-43.6,49.2-51.9,70.5c-8.1,20.9-12.1,47.2-12.1,80.2v12.7c0,2.9,2.3,5.2,5.2,5.2H343c2.9,0,5.2-2.3,5.2-5.2v-12.7
			c0-30.3,4.1-45.9,7.6-53.7c3.5-8,12.7-22.2,36-44.8c29.3-28.4,48.5-49.7,58.6-65.1c11.3-17,16.9-38.8,16.9-64.9
			C467.3,153.8,452.7,118.5,423.9,91.1z"/>
		<path class="st0" d="M259.4,562.1h89c2.9,0,5.2-2.3,5.2-5.2v-91.8c0-2.9-2.3-5.2-5.2-5.2h-89c-2.9,0-5.2,2.3-5.2,5.2v91.8
			C254.2,559.8,256.5,562.1,259.4,562.1z"/>
	</g>
</g>
</svg>
