<?xml version="1.0" encoding="utf-8"?>
<!-- Generator: Adobe Illustrator 21.0.2, SVG Export Plug-In . SVG Version: 6.00 Build 0)  -->
<svg version="1.1" id="Capa_1" xmlns="http://www.w3.org/2000/svg" xmlns:xlink="http://www.w3.org/1999/xlink" x="0px" y="0px"
	 viewBox="0 0 68.1 68.1" style="enable-background:new 0 0 68.1 68.1;" xml:space="preserve">
<style type="text/css">
	.st0{fill:#1D1E22;}
</style>
<path class="st0" d="M61.4,12.4H6.7c-3.7,0-6.7,3-6.7,6.7v9v9.4V49c0,3.7,3,6.7,6.7,6.7h54.7c3.7,0,6.7-3,6.7-6.7V37.6v-9.4v-9
	C68.1,15.4,65.1,12.4,61.4,12.4z M6.7,14.4h54.7c2.6,0,4.7,2.1,4.7,4.7v8H2v-8C2,16.6,4.1,14.4,6.7,14.4z M66.1,36.6H2v-7.4h64.1
	V36.6z M61.4,53.7H6.7C4.1,53.7,2,51.6,2,49V38.6h64.1V49C66.1,51.6,64,53.7,61.4,53.7z M14.4,44.5c0,0.6-0.4,1-1,1H7.7
	c-0.6,0-1-0.4-1-1s0.4-1,1-1h5.7C13.9,43.5,14.4,43.9,14.4,44.5z M27.3,44.5c0,0.6-0.4,1-1,1h-5.7c-0.6,0-1-0.4-1-1s0.4-1,1-1h5.7
	C26.8,43.5,27.3,43.9,27.3,44.5z M53.2,24.6c0.8,0,1.6-0.3,2.3-0.8c0.7,0.5,1.5,0.8,2.3,0.8c2.1,0,3.8-1.7,3.8-3.8S59.9,17,57.9,17
	c-0.8,0-1.6,0.3-2.3,0.8c-0.7-0.5-1.5-0.8-2.3-0.8c-2.1,0-3.8,1.7-3.8,3.8S51.2,24.6,53.2,24.6z M53.2,18c0.7,0,1.4,0.3,2,0.8
	c0.2,0.2,0.5,0.2,0.7,0c0.5-0.5,1.2-0.8,2-0.8c1.5,0,2.8,1.2,2.8,2.8s-1.2,2.8-2.8,2.8c-0.7,0-1.4-0.3-2-0.8
	c-0.1-0.1-0.2-0.1-0.4-0.1s-0.3,0-0.4,0.1c-0.5,0.5-1.2,0.8-2,0.8c-1.5,0-2.8-1.2-2.8-2.8S51.7,18,53.2,18z"/>
</svg>
