<?xml version="1.0" encoding="utf-8"?>
<!-- Generator: Adobe Illustrator 23.0.2, SVG Export Plug-In . SVG Version: 6.00 Build 0)  -->
<svg version="1.1" id="Layer_1" xmlns="http://www.w3.org/2000/svg" xmlns:xlink="http://www.w3.org/1999/xlink" x="0px" y="0px"
	 viewBox="0 0 120 120" style="enable-background:new 0 0 120 120;" xml:space="preserve">
<style type="text/css">
	.st0{fill:#CCCCCC;}
</style>
<g>
	<g id="notifications-none_1_">
		<path class="st0" d="M60.8,108c4.8,0,8.8-3.3,9.8-7.8c0.3-1.2-0.6-2.3-1.8-2.3h-16c-1.2,0-2.1,1.1-1.8,2.3
			C52,104.7,56,108,60.8,108z M93.6,77.7C93.6,77.7,93.6,77.7,93.6,77.7l0-27.8c0-15.6-10.6-28.3-25.2-31.8c0,0,0,0,0-0.1l0-2.9
			c0-2.6-1.1-5.2-3.3-6.7c-5.4-3.8-11.8,0.7-11.8,6.2v3.5c0,0,0,0.1,0,0.1c-14.6,3.6-25.2,16.2-25.2,31.8v27.7c0,0,0,0,0,0l-9,9
			c-0.7,0.7-1,1.6-1,2.5l0,0c0,2,1.6,3.6,3.6,3.6h78.7c2,0,3.6-1.6,3.6-3.6l0,0c0-0.9-0.4-1.9-1-2.5L93.6,77.7z M83.4,82.7H38.1
			c0,0-0.1,0-0.1-0.1l0-32c0-12.9,10.5-23.8,23.4-23.5c12.3,0.3,22.1,10.3,22.1,22.7L83.4,82.7C83.5,82.7,83.5,82.7,83.4,82.7z"/>
	</g>
</g>
</svg>
